<?xml version="1.0" encoding="UTF-8" standalone="no"?>
<!-- Created with Inkscape (http://www.inkscape.org/) -->

<svg
   xmlns:dc="http://purl.org/dc/elements/1.1/"
   xmlns:cc="http://creativecommons.org/ns#"
   xmlns:rdf="http://www.w3.org/1999/02/22-rdf-syntax-ns#"
   xmlns:svg="http://www.w3.org/2000/svg"
   xmlns="http://www.w3.org/2000/svg"
   xmlns:sodipodi="http://sodipodi.sourceforge.net/DTD/sodipodi-0.dtd"
   xmlns:inkscape="http://www.inkscape.org/namespaces/inkscape"
   version="1.1"
   id="svg2"
   xml:space="preserve"
   width="3840"
   height="2880"
   viewBox="0 0 3840 2880"
   sodipodi:docname="car_ride.svg"
   inkscape:version="0.92.5 (2060ec1f9f, 2020-04-08)"><metadata
     id="metadata8"><rdf:RDF><cc:Work
         rdf:about=""><dc:format>image/svg+xml</dc:format><dc:type
           rdf:resource="http://purl.org/dc/dcmitype/StillImage" /><dc:title></dc:title></cc:Work></rdf:RDF></metadata><defs
     id="defs6"><clipPath
       clipPathUnits="userSpaceOnUse"
       id="clipPath252"><path
         d="m 18946.2,4885 h -2181.1 v 0 h 1086 v 0 h 29.8 v 0 0 h 1065.3 v 0"
         id="path250"
         inkscape:connector-curvature="0" /></clipPath></defs><sodipodi:namedview
     pagecolor="#ffffff"
     bordercolor="#666666"
     borderopacity="1"
     objecttolerance="10"
     gridtolerance="10"
     guidetolerance="10"
     inkscape:pageopacity="0"
     inkscape:pageshadow="2"
     inkscape:window-width="669"
     inkscape:window-height="480"
     id="namedview4"
     showgrid="false"
     inkscape:zoom="0.081944444"
     inkscape:cx="1920"
     inkscape:cy="1440"
     inkscape:window-x="2498"
     inkscape:window-y="221"
     inkscape:window-maximized="0"
     inkscape:current-layer="g10" /><g
     id="g10"
     inkscape:groupmode="layer"
     inkscape:label="ink_ext_XXXXXX"
     transform="matrix(1.3333333,0,0,-1.3333333,0,2880)"><g
       id="g12"
       transform="scale(0.1)"><g
         id="g14"
         transform="scale(1.76687)"><path
           d="M 0,12225 H 16300 V 0 H 0 v 12225"
           style="fill:#ffffff;fill-opacity:1;fill-rule:evenodd;stroke:none"
           id="path16"
           inkscape:connector-curvature="0" /></g><g
         id="g18"
         transform="scale(1.45826)"><path
           d="m 9892.38,3016.87 c 3538.82,0 6407.62,-138.17 6407.62,-308.58 0,-170.48 -2868.8,-308.65 -6407.62,-308.65 -3538.84,0 -6407.64,138.17 -6407.64,308.65 0,170.41 2868.8,308.58 6407.64,308.58"
           style="fill:#ece9fb;fill-opacity:1;fill-rule:evenodd;stroke:none"
           id="path20"
           inkscape:connector-curvature="0" /></g><g
         id="g22"
         transform="scale(1.76562)"><path
           d="m 16300,1714.75 v -168.89 h -2238.9 l 359.5,168.89 z M 11.5775,1545.86 v 151.28 l 37.5244,17.61 H 3317.29 L 2957.75,1545.86 Z M 9630.1,1714.75 h 3268.2 l -359.5,-168.89 H 9270.57 Z m -4790.49,0 h 3268.2 L 7748.27,1545.86 H 4480.06 l 359.55,168.89"
           style="fill:#ece9fb;fill-opacity:1;fill-rule:evenodd;stroke:none"
           id="path24"
           inkscape:connector-curvature="0" /></g><g
         id="g26"
         transform="scale(1.76687)"><path
           d="m 8898.78,7872.3 h 34.02 v 660.2 l 479.71,458.71 512.66,-490.19 v 1217.31 h 285.23 v 767.97 h 285.2 492.4 V 8959.49 h 600.8 v -960.61 h 59.4 20.8 69.2 20.8 69.1 20.9 69.1 20.9 69.1 20.9 69.2 20.8 69.2 20.8 69.1 20.9 51.2 l 7.5,-6.55 v 1261.02 h 321 v 842.55 l 850.4,-736.49 V 7855.79 h 155.8 v 97.05 h 237.3 v -348.99 h 324.8 v 1026.81 h 427.2 v -1419.3 h 149.2 v 2761.61 h 129 v 171.73 h 128.9 v 171.6 h 129 129 v -171.6 h 129 v -171.73 h 129 v -895.76 h 702.7 v -4029.7 -302.96 h -5055 -3579.3 -22.98 -969.34 -390.35 -319.78 -319.79 -552.13 -1026.82 -156.29 -584.1 -420.71 -326.72 -312.04 -524 -324.27 -360.44 -444.809 -83.163 -203.051 -145 H 0 V 6059.3 h 179.917 v 1379.66 h 145 286.214 v 1114.69 l 805.249,706.65 h 324.27 V 6440.82 l 524,2032.01 h 312.04 v -645.21 l 7.34,7.69 h 49.74 20.26 67.23 20.26 67.23 20.26 67.23 20.25 67.23 20.27 67.22 20.27 67.22 20.26 67.23 20.26 57.67 v 351.87 l 740.39,-428.57 v 1212.83 l 1026.82,889.29 V 8609.34 h 552.13 319.79 v -641.38 h 319.78 V 9260.3 h 390.35 l 969.34,-706.65 V 8068.7 h 209.35 v 138.72 h 209.36 v 138.71 h 209.35 209.35 v -138.71 h 209.35 V 8068.7 h 209.3 v -196.4"
           style="fill:#ece9fb;fill-opacity:1;fill-rule:evenodd;stroke:none"
           id="path28"
           inkscape:connector-curvature="0" /></g><g
         id="g30"
         transform="scale(1.76687)"><path
           d="M 16300,7329.11 V 3516.22 H 0 v 3387.36 l 515.159,228.98 v 487.4 H 390.501 v 195.55 h 747.839 v -195.55 h -124.66 v -265.81 l 1185.96,527.11 2444.71,-2103.42 -448.7,560.09 466.36,273.3 v 727.78 h 582.26 v -386.58 l 683.84,400.76 1561.57,-814.34 -336.53,-311.17 1734.26,1242.85 596.3,-733.23 v 372.37 h 245.75 v -674.51 l 112.29,-138.1 -398.84,-373.42 1317.59,764.57 1189.4,-1134.38 -302.6,-257.8 801.9,440.78 v 419.38 h 381 v -209.92 l 492.5,270.76 1534.9,-743.17 -689.1,467.6 1171.3,762.57 v 446.11 h -71.2 v 225.82 h 621.4 v -225.82 h -69.4 V 7016.97 Z M 9787.75,7208.36 c -115.79,99.72 -237.08,89.95 -362.33,0 h -32.49 v -60.46 h 427.31 v 60.46 h -32.49"
           style="fill:#f7f6ff;fill-opacity:1;fill-rule:evenodd;stroke:none"
           id="path32"
           inkscape:connector-curvature="0" /></g><path
         d="M 667.328,10561.5 H 1156.89 V 9714.1 H 667.328 Z m 1063.852,0 h 489.56 v -847.4 h -489.56 v 847.4"
         style="fill:#ffffff;fill-opacity:1;fill-rule:evenodd;stroke:none"
         id="path34"
         inkscape:connector-curvature="0" /><g
         id="g36"
         transform="scale(1.73239)"><path
           d="m 16015.9,6194.96 h 284.1 v -491.75 h -284.1 z m -464.4,-573.66 h 284.1 v -491.75 h -284.1 v 491.75"
           style="fill:#ffffff;fill-opacity:1;fill-rule:evenodd;stroke:none"
           id="path38"
           inkscape:connector-curvature="0" /></g><path
         d="m 3714.54,4213.6 c 0,-15.7 15.29,-75.7 -275.92,-68.2 -39.19,18.4 -93.41,36.3 -100.85,34.7 -7.45,-1.5 -14.96,-32.6 -14.96,-32.6 -36.26,-4.9 -140.95,-12.9 -148.54,19.2 -16.06,67.9 14.48,164.7 54.93,198.3 l 9.75,0.8 c 0,-12.9 19.59,-55.6 56.44,-52.5 36.84,3.1 79.96,38.8 92.11,64.3 21.16,-7.1 125.03,-120.3 203.81,-132.5 78.78,-12.2 112.49,11.8 123.23,-31.5"
         style="fill:#403379;fill-opacity:1;fill-rule:evenodd;stroke:none"
         id="path40"
         inkscape:connector-curvature="0" /><path
         d="m 4831.85,4213.6 c 0,-15.7 15.29,-75.7 -275.92,-68.2 -39.19,18.4 -93.41,36.3 -100.86,34.7 -7.44,-1.5 -14.96,-32.6 -14.96,-32.6 -36.25,-4.9 -140.94,-12.9 -148.54,19.2 -16.05,67.9 14.48,164.7 54.94,198.3 l 9.74,0.8 c 0,-12.9 19.6,-55.6 56.45,-52.5 36.84,3.1 79.95,38.8 92.1,64.3 21.17,-7.1 125.04,-120.3 203.82,-132.5 78.78,-12.2 112.48,11.8 123.23,-31.5"
         style="fill:#403379;fill-opacity:1;fill-rule:evenodd;stroke:none"
         id="path42"
         inkscape:connector-curvature="0" /><path
         d="m 3389.05,4372.7 26.09,210.2 -202.72,8.4 15.66,-226.8 c 8.34,-37.6 27.59,-52.6 67.63,-53.7 43.2,-1.2 76.94,28.2 93.34,61.9"
         style="fill:#f99f97;fill-opacity:1;fill-rule:evenodd;stroke:none"
         id="path44"
         inkscape:connector-curvature="0" /><path
         d="m 4506.35,4372.7 26.1,210.2 -202.72,8.4 15.66,-226.8 c 8.34,-37.6 27.58,-52.6 67.63,-53.7 43.2,-1.2 76.94,28.2 93.33,61.9"
         style="fill:#f99f97;fill-opacity:1;fill-rule:evenodd;stroke:none"
         id="path46"
         inkscape:connector-curvature="0" /><path
         d="m 4894.48,9999.2 c -11,-27.5 -86.05,-146.5 -161.1,-139.6 -19.22,-19.2 -162.01,-327.2 -172.99,-382.1 l -104.03,344.2 c 31.13,64 184.28,142.5 184.28,142.5 3.04,78 -61.65,216.2 -22.59,268.4 39.05,52.1 195.86,5.5 207.76,-65.9 l 68.67,-167.5"
         style="fill:#f99f97;fill-opacity:1;fill-rule:evenodd;stroke:none"
         id="path48"
         inkscape:connector-curvature="0" /><path
         d="m 4733.37,9859.6 c -19.21,-19.2 -162,-327.2 -172.98,-382.1 l -104.03,344.2 c 31.13,64 184.28,142.5 184.28,142.5 0.08,2 0.1,4 0.1,6.1 v 0 l 92.63,-110.7"
         style="fill:#403379;fill-opacity:1;fill-rule:evenodd;stroke:none"
         id="path50"
         inkscape:connector-curvature="0" /><path
         d="m 3171.39,8613.7 c 483.25,-120.8 1255.7,-90.6 1478.1,-22.9 50.97,-728.9 -37.33,-3483 -70.27,-4109.4 l -323.05,-6.7 C 4132.82,5317.4 4011.27,6308.3 3939.42,7020.5 3786.73,6112.3 3568.72,4907 3461.59,4481.4 l -285.49,3.7 c -14.64,622.4 -38.98,3154.9 -4.71,4128.6"
         style="fill:#fbc43a;fill-opacity:1;fill-rule:evenodd;stroke:none"
         id="path52"
         inkscape:connector-curvature="0" /><path
         d="m 3382.95,10767.4 c 308.72,147.2 497.35,153.2 719.22,71.2 456.71,-231.6 513.77,-1486.9 553.97,-2372.4 -222.4,-67.7 -1016.14,-88.6 -1499.39,32.2 -19.85,612 63.03,1716.4 226.2,2269"
         style="fill:#403379;fill-opacity:1;fill-rule:evenodd;stroke:none"
         id="path54"
         inkscape:connector-curvature="0" /><path
         d="m 4105.9,8105.7 c 13.8,-129.1 -58.67,-1089.5 -123.35,-1492.4 -15.79,143.1 -30.26,279.6 -43.13,407.2 92.91,552.6 161.63,995.2 166.48,1085.2"
         style="fill:#ecb834;fill-opacity:1;fill-rule:evenodd;stroke:none"
         id="path56"
         inkscape:connector-curvature="0" /><path
         d="m 3784.02,10995.5 c -161.4,323.6 -99.82,532.7 -26.22,563.6 65.23,279.4 452.44,119.2 505.54,126.3 53.11,7.1 67.74,68.8 56.86,86.2 83,-55 137.39,-253.8 71.99,-336 -76.69,-96.4 -298.04,11.2 -336.67,-16.1 -28.43,-20.1 -25.93,-109.6 -38.47,-122.1 -12.54,-12.6 -62.7,1.6 -66.05,-3.8 -3.34,-5.4 -15.47,-136.7 -33.45,-165.2 7.95,54 -7.11,184.4 -94.5,171.1 -39.72,-13.4 -33.45,-128.8 26.34,-217.5 -10.45,-19.6 -35.87,-73.6 -65.37,-86.5"
         style="fill:#fbc43a;fill-opacity:1;fill-rule:evenodd;stroke:none"
         id="path58"
         inkscape:connector-curvature="0" /><path
         d="m 4063.49,10637.1 c -74.43,6.3 -245.45,76.9 -296.47,217 l 18.18,141.9 c 28.99,13.9 53.88,66.6 64.19,86 -59.79,88.7 -66.06,204.1 -26.34,217.5 87.39,13.3 102.45,-117.1 94.5,-171.1 17.98,28.5 30.11,159.8 33.45,165.2 3.35,5.4 53.51,-8.8 66.05,3.8 12.54,12.5 10.04,102 38.47,122.1 31.47,22.2 184.18,-45 281.18,-18.6 -3.28,-73.3 -20.31,-266.9 -83.69,-392.7 -34.3,-68.1 -81.9,-104 -137.42,-113.2 l -6.43,-31.8 -45.67,-226.1"
         style="fill:#f99f97;fill-opacity:1;fill-rule:evenodd;stroke:none"
         id="path60"
         inkscape:connector-curvature="0" /><path
         d="m 4095.76,10796.8 c -125.56,17.9 -182.37,151.6 -174.87,223.8 12.03,-89.8 104.1,-134.4 182.06,-127.2 4.26,0.3 8.47,0.9 12.64,1.6 l -6.43,-31.8 -13.4,-66.4"
         style="fill:#e78a81;fill-opacity:1;fill-rule:evenodd;stroke:none"
         id="path62"
         inkscape:connector-curvature="0" /><path
         d="m 4888.53,10515.4 -150.1,-576.6 -312.76,81.4 150.1,576.6 312.76,-81.4"
         style="fill:#0a3c5f;fill-opacity:1;fill-rule:evenodd;stroke:none"
         id="path64"
         inkscape:connector-curvature="0" /><path
         d="m 4894.48,9999.2 c -140.94,49.1 -238.29,204.4 -143.83,283.8 30.98,26.1 97.61,24 139.7,-42.2 42.1,-66.1 32.48,-177.1 4.13,-241.6"
         style="fill:#f99f97;fill-opacity:1;fill-rule:evenodd;stroke:none"
         id="path66"
         inkscape:connector-curvature="0" /><path
         d="m 3397.2,7979.3 c 11.28,-44.8 54.21,-394.5 285.52,-389 81.88,-10.3 -76.7,294.6 -44.9,326.4 16.69,20.6 64.78,-153.1 88.63,-139.6 23.85,13.5 3.18,109.7 -21.46,170.9 -24.64,61.3 -98.57,110.4 -176.48,97 -77.9,-13.5 -111.28,27.9 -111.28,27.9 l -10.34,3.9 -9.69,-97.5"
         style="fill:#f99f97;fill-opacity:1;fill-rule:evenodd;stroke:none"
         id="path68"
         inkscape:connector-curvature="0" /><path
         d="m 3340.7,9793.6 c 88.63,191.8 159.19,401.3 178.88,522.5 34.11,232.1 -30.68,455.3 -95.32,456.5 -187.66,3.5 -386.78,-375.7 -534.25,-738.3 h -0.02 c -118.41,-291.1 -203.48,-571.5 -222.53,-634.4 40.3,-236.7 291.51,-718.1 496.24,-1075.4 92.88,-162.1 176.2,-298.7 225.9,-375.2 l 209.61,100.4 c -113.7,371.3 -299.33,958.3 -492.2,1369.4 31.47,27.2 50.11,53.6 82.6,100.7 52.2,75.8 104.18,172.3 151.1,273.8 h -0.01"
         style="fill:#403379;fill-opacity:1;fill-rule:evenodd;stroke:none"
         id="path70"
         inkscape:connector-curvature="0" /><g
         id="g72"
         transform="scale(1.50835)"><path
           d="m 16155.1,3388.94 -26.3,-209.31 c -1.8,-30.89 -1,-115.88 0.5,-223.02 47.3,-40.64 122.6,-29.57 132.2,3.71 9.7,33.22 38.5,373.19 38.5,373.19 l -144.9,55.43"
           style="fill:#e4ab8d;fill-opacity:1;fill-rule:evenodd;stroke:none"
           id="path74"
           inkscape:connector-curvature="0" /></g><g
         id="g76"
         transform="scale(1.5091)"><path
           d="m 16300,2872.84 c -28.7,-3.05 -136.2,-8.68 -146.8,-9.54 -10.6,-0.86 -31.8,-15.51 -38.5,-15.97 -33.7,-2.25 -79.5,12.92 -91.1,15.57 -11.6,2.65 -190,5.17 -191.3,8.68 -1.2,3.52 0.7,25.45 17.2,32.74 8.3,3.64 44.4,15.77 86.9,32.2 42,16.24 86.8,35.78 107.4,46.19 12.8,6.43 20.2,15.31 31.2,21.6 v 0 c 8.4,5.63 47.7,41.81 53.4,40.95 5.7,-0.92 44.6,-26.04 44.6,-32.2 0,-3.71 -6.5,-15.11 -11.8,-23.86 9.8,-3.57 19.7,-5.36 30.2,-2.52 33.1,8.82 35.9,47.05 54.5,48.44 18.6,1.46 54,-42.27 54.1,-162.28"
           style="fill:#345f81;fill-opacity:1;fill-rule:evenodd;stroke:none"
           id="path78"
           inkscape:connector-curvature="0" /></g><g
         id="g80"
         transform="scale(1.57471)"><path
           d="m 16181.1,3244.98 -44.8,-146.25 c -1.7,-29.6 18.6,-165.18 20.1,-267.86 45.2,-38.93 117.4,-28.33 126.6,3.56 9.3,31.87 17,348.63 17,348.63 l -118.9,61.92"
           style="fill:#e4ab8d;fill-opacity:1;fill-rule:evenodd;stroke:none"
           id="path82"
           inkscape:connector-curvature="0" /></g><g
         id="g84"
         transform="scale(1.50984)"><path
           d="m 16291.1,2871.3 0.9,-0.8 c 1.8,-4.83 8,-25.17 6.2,-29.6 -1.7,-4.44 -74.8,-21.73 -208.1,-18.22 -133.4,3.51 -245,8.02 -265.4,47.36 v 0 c 5.5,-3.44 179.6,-5.9 191,-8.54 11.6,-2.65 57.4,-17.82 91.1,-15.57 6.6,0.46 27.8,15.1 38.5,15.96 10.4,0.86 116.1,6.43 145.8,9.41"
           style="fill:#61b1c5;fill-opacity:1;fill-rule:evenodd;stroke:none"
           id="path86"
           inkscape:connector-curvature="0" /></g><g
         id="g88"
         transform="scale(1.57698)"><path
           d="m 16018.5,2702.5 c 104,0 277.6,0 277.6,0 3.9,18.27 0.7,82.25 -7.1,105.4 -9.7,28.91 -20.8,53.64 -33.6,54.02 -26,0.76 -10.8,-47.24 -48.4,-44.96 -37.6,2.22 -24.2,32.85 -74.3,34.37 -8.9,0.26 -59.4,-44.51 -95.2,-86.87 -13.3,-15.66 -19.9,-32.79 -19,-61.96"
           style="fill:#345f81;fill-opacity:1;fill-rule:evenodd;stroke:none"
           id="path90"
           inkscape:connector-curvature="0" /></g><g
         id="g92"
         transform="scale(1.57679)"><path
           d="m 16020.4,2702.83 c 104.1,0 277.6,0 277.6,0 1.5,6.85 2,20.04 1.6,35.2 l -277.4,-8.37 c -1.5,-7.74 -2.1,-16.56 -1.8,-26.83"
           style="fill:#61b1c5;fill-opacity:1;fill-rule:evenodd;stroke:none"
           id="path94"
           inkscape:connector-curvature="0" /></g><g
         id="g96"
         transform="scale(1.59312)"><path
           d="m 15944.3,2963.74 c -26.1,547.98 -136,1384.26 -153.6,1790.38 -63.1,-177.39 -160.3,-432.54 -193.2,-635.54 l -333.3,-4.77 c 4.4,278.76 128.9,765.48 175.5,1050.26 76.7,50.84 148.6,28.25 251.2,24.98 102.5,-3.2 189.4,114.18 369,64.28 94.2,-26.18 151.5,-79.09 189.6,-113.49 32.1,-368.96 4.6,-1137.64 0,-1383.38 -4.7,-245.75 50.5,-319.44 44.6,-350.19 -5.8,-30.76 -39,-34.09 -45,-55.12 -18.2,-71.62 25.9,-170.92 20.5,-218.18 -5.5,-47.21 -42.5,-93.59 -55.8,-107.72 -13.4,-14.12 14.1,-39.98 -9.7,-54.1 -23.9,-14.13 -178.3,-29.38 -259.8,-7.41"
           style="fill:#40488b;fill-opacity:1;fill-rule:evenodd;stroke:none"
           id="path98"
           inkscape:connector-curvature="0" /></g><g
         id="g100"
         transform="scale(1.52719)"><path
           d="m 16271.9,4300.25 c -1.8,-6.68 -3.7,-13.36 -5.4,-19.97 -81,-316.53 33.5,-675.29 26.7,-706.59 -6.8,-31.37 -42.8,-6.03 -54.9,-77.47 -7.2,-42.3 19.9,-106.73 19.6,-146.54 -0.1,-24.03 -38.3,-5.43 -37.7,-30.58 2.1,-88.92 8,-205.47 -0.8,-213.59 -7.2,-6.62 -28.1,4.78 -45.4,-1.05 -18.1,-6.09 -15.7,-19.19 -35.3,-21.48 -33.9,-3.99 -104.8,23.64 -213,-7.79 2.5,337.48 -24.5,1090.04 2.2,1252.1 l 344,-27.04"
           style="fill:#40488b;fill-opacity:1;fill-rule:evenodd;stroke:none"
           id="path102"
           inkscape:connector-curvature="0" /></g><g
         id="g104"
         transform="scale(1.51745)"><path
           d="m 15704,6525.23 c 16.9,-43.82 90.8,-248.9 343.4,-167.12 252.6,81.78 51.9,151.31 51.9,151.31 l -159.2,43.49 -57.7,77.1 -178.4,-104.78"
           style="fill:#ffa180;fill-opacity:1;fill-rule:evenodd;stroke:none"
           id="path106"
           inkscape:connector-curvature="0" /></g><g
         id="g108"
         transform="scale(1.52559)"><path
           d="m 16300,6793.24 c -63.1,-21.63 -405.1,-191.27 -471.3,-242.07 18.4,-65.02 99.8,-235.31 115.6,-261.27 76,28.32 285.6,141.98 332.5,179.01 l 23.2,324.33"
           style="fill:#3b86ff;fill-opacity:1;fill-rule:evenodd;stroke:none"
           id="path110"
           inkscape:connector-curvature="0" /></g><g
         id="g112"
         transform="scale(1.5882)"><path
           d="m 15832.9,6556.28 c 0.7,-22.48 25.7,-93.12 54.7,-96.78 29,-3.58 130.5,80.47 134.9,95.02 0,1.7 -0.1,3.52 -0.1,5.54 42.2,-9.82 194.9,-55.73 277.6,-88.4 l -35.5,-367.46 -4.1,5.73 c 3.3,-351.91 34.2,-606.54 39.5,-954.23 -130.4,-31.73 -715.1,-48.6 -812.4,24.37 64.9,652.81 50.2,975.32 117.2,1322.75 50.4,45.46 179.8,56.17 229.1,63.41 l -0.9,-9.95"
           style="fill:#3b86ff;fill-opacity:1;fill-rule:evenodd;stroke:none"
           id="path114"
           inkscape:connector-curvature="0" /></g><g
         id="g116"
         transform="scale(1.61248)"><path
           d="m 16093.1,6345.08 c 79.1,-69.65 184.4,-323.05 206.9,-398.71 -1.3,-0.99 -2.6,-2.04 -4,-3.1 -41.1,-31.07 -138,-85.76 -193.2,-114.79 -17.1,-8.99 -30.2,-15.5 -36.4,-18.11 -31.6,47.63 -93.9,172.78 -129.9,255.94 -10,24.69 -133.3,255.82 -65.3,311.7 49,40.12 142.8,36.71 221.9,-32.93"
           style="fill:#3b86ff;fill-opacity:1;fill-rule:evenodd;stroke:none"
           id="path118"
           inkscape:connector-curvature="0" /></g><g
         id="g120"
         transform="scale(1.48373)"><path
           d="m 15849.2,7293.58 c 4.2,-180.22 111.3,-375.81 190.8,-574.16 32.7,-81.55 79.2,-155.29 173.6,-123.48 86.4,29.25 75.1,62.14 71.2,76.7 -12.6,44.15 -31.3,93.21 -45.9,122.6 -139.7,282.73 -296,470.44 -346.5,519.37 -7,146.65 -145.9,204.01 -181.7,185.34 -23.5,-26.69 65.8,-35.59 138.5,-206.37"
           style="fill:#ffa180;fill-opacity:1;fill-rule:evenodd;stroke:none"
           id="path122"
           inkscape:connector-curvature="0" /></g><g
         id="g124"
         transform="scale(1.56458)"><path
           d="m 16084.4,6794.78 c -51,19.56 -88.9,68.07 -96,127.96 -5,41.93 1.8,85.07 9.8,118.75 3.3,13.87 6.8,26.08 9.8,35.99 50.5,0.06 102.2,53.43 156.2,34.51 58.9,-24.99 10.7,-133.2 35.7,-186.18 2.6,23.52 25.1,78.74 62.6,59.57 37.5,-19.11 20.2,-85.33 -40.5,-112.94 l 40.5,-71.07 c 0,0 1,-100.41 1.8,-142.28 0,-1.98 0,-3.9 0,-5.62 -4.4,-14.77 -107.4,-100.09 -136.9,-96.45 -29.4,3.71 -54.8,75.42 -55.5,98.24 l 0.9,10.1 11.6,129.42"
           style="fill:#ffa180;fill-opacity:1;fill-rule:evenodd;stroke:none"
           id="path126"
           inkscape:connector-curvature="0" /></g><g
         id="g128"
         transform="scale(1.57707)"><path
           d="m 16036.3,7055.69 c -53.6,18.77 -105,-34.18 -155.1,-34.24 -2.9,-9.83 -6.4,-21.94 -9.7,-35.7 -33.6,16.61 -69.1,62.01 -72.8,111.47 -5.7,78.12 50.9,159.86 116,150.92 65.1,-8.95 70.4,-61.51 77.8,-63.16 43.1,-9.89 142.7,28.47 214.8,-68.61 92.7,-124.66 66.8,-292.88 -73.6,-368.85 l -40.1,70.51 c 60.2,27.4 77.4,93.09 40.1,112.05 -37.2,19.02 -59.5,-35.77 -62,-59.1 -24.9,52.57 23,159.92 -35.4,184.71"
           style="fill:#1548c6;fill-opacity:1;fill-rule:evenodd;stroke:none"
           id="path130"
           inkscape:connector-curvature="0" /></g><g
         id="g132"
         transform="scale(1.6252)"><path
           d="m 15639.8,5040.31 c 28.7,35.88 388.7,471.95 435.5,537.97 1.3,27.38 -74.2,153.76 -98.5,204.59 54.7,28.8 150.9,83.07 191.7,113.89 44.6,-90.88 131.5,-313.56 119,-365.06 -45.3,-187.24 -450.8,-430.66 -600.9,-554.52 -10.8,-30.27 -75.4,-164.78 -212.2,-120.23 -59.2,25.66 72.5,148.17 122.8,146.94 -53.7,8.49 -72.8,34.09 -69,52.97 5.9,13.36 41.2,12.07 111.6,-16.55"
           style="fill:#ffa180;fill-opacity:1;fill-rule:evenodd;stroke:none"
           id="path134"
           inkscape:connector-curvature="0" /></g><g
         id="g136"
         transform="scale(1.55608)"><path
           d="m 16281.8,7043.21 c -0.6,-11.05 -7.6,-59.7 -13.7,-69.72 -6,-10.03 -101.9,-28.15 -105.4,-49.23 -3.6,-21.08 -15,32.39 -31.1,37.4 -16,5.08 -53.2,-2.06 -59.9,-11.24 -6.8,-9.26 13,-131.3 55.8,-135.15 42.9,-3.79 170.8,59.31 168.3,82.9 -2.5,23.58 -4.2,87.98 4.2,100.83 l -18.2,44.21"
           style="fill:#1548c6;fill-opacity:1;fill-rule:evenodd;stroke:none"
           id="path138"
           inkscape:connector-curvature="0" /></g><g
         id="g140"
         transform="scale(1.40779)"><path
           d="m 15238.1,6262.93 c -155.6,115 -237.2,240.66 -235,425.7 l 109.4,-31.04 -107.7,69.69 c 8,114.15 45.4,250.03 114.2,417.89 5.6,13.84 11.3,27.55 17,41.12 l 328.9,-219.77 -310.7,262.11 c 64.2,146.4 133.9,274.97 205.8,387.7 l 229.5,-222.48 -218.1,240.09 c 116,178.37 212.9,293.02 328.3,397.86 l 209.3,-204.86 -145.2,262.68 c 225.4,193.03 420.2,261.35 490.3,267.15 -209.9,-270.63 -483.4,-654.63 -1016,-2093.84 z m 1016,2093.84 c 45.9,-108.42 3.3,-415.68 -91,-784.06 l -111.2,3.84 101.8,-40.06 c -36.8,-140.15 -80.7,-288.26 -129.7,-437.14 l -314.4,18.18 301.5,-56.68 c -62.5,-186.04 -132.8,-372.15 -207.3,-543.98 l -261.4,-22.58 246,-12.65 c -28.2,-64 -57,-125.87 -86.1,-184.76 -34.2,-68.4 -343.1,-128.99 -460.4,-139.22 162.7,438.63 666.1,1768.02 1012.2,2199.11"
           style="fill:#fbc43a;fill-opacity:1;fill-rule:evenodd;stroke:none"
           id="path142"
           inkscape:connector-curvature="0" /></g><path
         d="m 6577.11,6780.1 c 88.75,-28.5 212.93,158.5 359.65,328.2 129.11,149.2 286.6,265.9 239.94,339.3 -14.28,21.3 -130.09,13 -139.6,64.7 -9.5,51.7 60.61,142.9 190.05,203.4 129.43,60.6 319.39,44.3 334.66,180.6 15.27,136.4 -190.74,115.8 -198.47,174.2 -11.37,86.1 96.82,153.2 221.92,203.4 104.5,42 363.67,52.1 420.77,193.1 57.1,140.9 -452.28,96 -406.78,273.8 10.16,50.1 130.95,90.8 251.79,76.1 153.41,-18.8 341.53,-72.3 423.04,-53.9 81.51,18.4 217.43,89 169.08,234.8 -41.91,126.4 -397.68,-15.4 -377.75,144 19.91,159.4 348.93,103.6 511.31,344.4 262.64,389.3 179.95,765.7 -0.98,912 -271.73,219.8 -493.03,-141.7 -563.04,-367.6 -73.68,-237.7 -71.48,-482.2 -222.98,-469.2 -151.52,13 36.23,404 -64.83,451.2 -101.06,47.2 -270.87,-43.3 -266.83,-314.4 1.69,-112.8 24.36,-413.3 -148.02,-378.7 -108.51,27.3 -17.94,197.9 -39.66,324.5 -21.71,126.6 -122.47,134.8 -167.85,126.3 -45.37,-8.6 -125.18,-58.6 -95.05,-347.2 30.13,-288.7 43.73,-766.2 -168.29,-753 -94.86,5.9 -73.82,332.4 -181.67,327.2 -124.56,-6.1 -128.28,-228.7 -91.52,-361.9 31.5,-114.2 173.17,-337.4 96.71,-398.3 -71.7,-39 -111.39,93 -156.29,98.2 -46.83,5.5 -101.64,-76.7 -85.64,-184 32.09,-215.2 244.92,-458.2 106.37,-588 -52.15,-32.6 -71.53,51.8 -124.63,24.5 -53.1,-27.4 57.78,-759.1 174.59,-807.7 z m -10.23,63.4 c 1.79,92.6 18.03,237.5 51.1,408.7 27.14,140.5 65.57,298.7 116.6,460.2 42.29,133.9 93.31,270.4 153.8,401.4 53.73,116.3 115.01,228.5 184.41,330.8 99.28,146.4 209.18,280.5 321.25,405.2 112.26,125 226.14,240.1 333.85,348.9 140.51,141.9 270.44,273.2 370.48,399.8 99.3,125.7 169.15,246.8 190.61,369.3 l 2.05,11.7 51.47,-9 -2.06,-11.7 c -23,-131.3 -95.65,-258.7 -198.55,-389.5 -102.13,-129.9 -234.1,-263.2 -376.82,-407.4 h -0.03 c -214.35,-216.6 -453.25,-458 -649,-746.6 -67.63,-99.7 -127.59,-209.5 -180.33,-323.8 -59.38,-128.7 -109.54,-262.9 -151.19,-394.8 -50.47,-159.7 -88.38,-315.6 -115.08,-453.6 -32.53,-168.3 -48.47,-310.2 -50.23,-400.7 l -0.24,-11.8 -52.33,1 0.24,11.9"
         style="fill:#e5d2a2;fill-opacity:1;fill-rule:evenodd;stroke:none"
         id="path144"
         inkscape:connector-curvature="0" /><path
         d="m 6590.9,6647.5 c 218.97,-24.4 331.29,326.8 417.43,442.1 48.97,65.5 118.31,83.6 147.73,133.7 33.58,57.2 2.66,197.7 -72.3,209.7 -88.86,14.3 -160.14,-115.4 -259.52,-66.7 -98.79,51.2 -29.02,261.7 38.98,407.8 67.99,146.2 256.07,280 305.74,449.7 49.68,169.8 15.22,269.6 -45.38,296.2 -86.25,37.9 -194.83,-34.7 -257.59,-126.8 -65.88,-96.7 -123.95,-319.1 -311.74,-235.6 -59.91,26.7 -91.01,153.5 -38.21,294.6 52.79,141 230.99,201 302.83,397 111.4,303.8 -135.1,414.3 -342.73,229.8 -47.62,-42.3 -87.05,-113.7 -135.39,-175 -99.82,-126.6 -250.64,-100.9 -292.4,-59.3 -64.05,63.8 -94.55,103.5 -46.99,246.2 47.56,142.7 141.77,322.3 181.25,466.4 39.47,144 11.22,420.1 -178.04,493.6 -107.92,42 -468.93,-37 -553.84,-643 -47.65,-401 308.29,-452.3 289.78,-599.1 -18.52,-146.7 -274.58,-92.3 -286.91,-216.7 -12.33,-124.4 88.69,-229.5 234.81,-269.5 146.13,-39.9 498.33,-18.2 504.33,-180.2 2.07,-42.4 -27.82,-64.7 -64.51,-73.7 -62.07,-15.3 -138.62,4.7 -168.9,-48.6 -31.7,-55.8 -33.85,-213.4 87.71,-261.4 133.77,-52.7 268.16,26 386.16,-102.2 40.58,-44 59.51,-111.7 28.09,-161.1 -48.22,-65.8 -115.24,-3.6 -165.12,-24.2 -33.79,-13.9 -77.39,-113 -55.48,-170.3 21.92,-57.3 156.54,-121.6 176.2,-200.5 19.16,-76.9 2.1,-389.6 127.69,-442 31.4,147.7 49.64,286.7 56,417.5 6.38,131.3 0.79,254.5 -15.53,370 -16.28,115.3 -43.22,223.1 -79.61,324.1 -36.42,101 -82.22,195.1 -136.21,283 -39.14,63.7 -81.26,125.1 -124.48,184.7 -43.4,60 -87.41,117.5 -130.68,174 -272.4,356.1 -517.06,675.9 -335.12,1201.7 l 3.87,11.2 44.96,-15.5 -3.89,-11.2 c -86.78,-250.8 -71.15,-453.2 -0.98,-635.9 70.46,-183.4 196.32,-347.9 328.93,-521.3 h 0.02 c 87.3,-114.1 177.5,-232 257.82,-362.8 55.74,-90.8 102.99,-187.8 140.47,-291.7 37.51,-104.1 65.28,-215 82.03,-333.7 16.7,-118.3 22.43,-244.3 15.93,-378.5 -6.49,-133.7 -25.14,-275.7 -57.21,-426.5"
         style="fill:#ff8498;fill-opacity:1;fill-rule:evenodd;stroke:none"
         id="path146"
         inkscape:connector-curvature="0" /><path
         d="m 10907.1,9408.8 49.5,-114.9 c 51.9,-161.1 228.8,-1147 215.3,-1417.4 -13.5,-270.4 -1546.45,-2097.4 -1636.59,-2232.6 -146.47,-40.6 -195.38,82.9 -195.38,82.9 l -77.91,157.5 c 240.27,403.3 749.78,1492.3 1160.68,1918.8 -75.5,472.3 -278.3,1450.3 127.3,1810.8 l 357.1,-205.1"
         style="fill:#2e5778;fill-opacity:1;fill-rule:evenodd;stroke:none"
         id="path148"
         inkscape:connector-curvature="0" /><path
         d="m 10225.5,9421.2 -115,-50.2 c -42.8,-65.9 -316.55,-539.1 111.6,-2039.8 -40.6,-342.5 85.6,-1280 119.4,-1814 83.4,-378.6 191.6,-169 191.6,-169 l 169,58.6 c 74.3,827 238.8,2879.8 -9,3993 l -467.6,21.4"
         style="fill:#345f81;fill-opacity:1;fill-rule:evenodd;stroke:none"
         id="path150"
         inkscape:connector-curvature="0" /><path
         d="m 10304.4,5024.3 c 0,-47.3 -22.5,-565.4 -29.3,-609.4 h 146.5 c 2.3,74.3 66.5,303 83.4,327.8 16.9,24.8 -128.5,225.3 -128.5,225.3 l -72.1,56.3"
         style="fill:#e76345;fill-opacity:1;fill-rule:evenodd;stroke:none"
         id="path152"
         inkscape:connector-curvature="0" /><path
         d="m 10341.5,5511.6 c 42.3,-42.2 272.6,-96.9 360.6,-104.8 0,-242.1 80,-492.4 180.1,-676.1 77.8,-142.6 183.2,-245.2 172.6,-272.5 -37.7,-96.9 -385.9,-24.3 -508.8,138 -121.6,160.7 -243.4,406.2 -241.6,428.1 7.9,124 37.2,300.9 37.1,487.3"
         style="fill:#ee7357;fill-opacity:1;fill-rule:evenodd;stroke:none"
         id="path154"
         inkscape:connector-curvature="0" /><path
         d="m 10778.9,9983 c 24.8,-24.8 223.1,19.1 332.4,120.5 109.3,101.4 500.3,457.5 522.8,508.2 61.9,14.6 287.3,63.1 289.5,107 2.3,43.9 -22.5,190.4 -22.5,190.4 58.6,39.5 248.5,136.3 238.9,185.4 -11.3,33.8 -345.3,-145.4 -422.5,-201.7 4.5,32.7 45,117.7 39.4,128.4 -5.6,10.7 -112.7,-31.5 -199.4,-242.2 -91.3,-45.1 -596,-414.7 -711,-523.9 -114.9,-109.3 -67.6,-272.1 -67.6,-272.1"
         style="fill:#e5a485;fill-opacity:1;fill-rule:evenodd;stroke:none"
         id="path156"
         inkscape:connector-curvature="0" /><path
         d="m 10560.6,11008.7 c 86.7,-33.8 431.5,-190.4 459.7,-409 28.1,-218.6 -142,-487.8 -137.5,-514.9 40.6,-123.9 71,-687.3 73.8,-790.9 -130.7,-29.9 -682.7,-13 -846.1,77.2 73.2,208.4 164.5,559.9 147.6,642.2 -16.9,82.2 -418.01,547.5 -381.96,903.6 l 684.46,91.8"
         style="fill:#ee7357;fill-opacity:1;fill-rule:evenodd;stroke:none"
         id="path158"
         inkscape:connector-curvature="0" /><path
         d="m 10245.6,10920.7 c 108.2,-137.5 317.1,-177 356.5,-169.2 42.2,8.5 6.2,157.8 5.1,182 -1,20.2 -48.6,178.2 -66.6,246.3 69.1,36.7 114.2,102 110.8,188 -5.3,133.9 -93.7,304.1 -150.6,390.8 -167.2,-21.5 -96.3,-460.7 -253.6,-465.7 -16.3,36.1 -75.1,100.8 -120.5,75.5 -45.3,-25.4 -31,-99.2 3.9,-136.9 35,-37.8 93.8,-33.4 132.4,-84.5 34.8,-46.1 55.2,-176.7 -17.4,-226.3"
         style="fill:#e5a485;fill-opacity:1;fill-rule:evenodd;stroke:none"
         id="path160"
         inkscape:connector-curvature="0" /><path
         d="m 10367.1,11147.6 c 25.1,-32.3 139.9,-78.3 208.4,-92 -13,45.8 -26.9,93.9 -34.9,124.2 -48.7,-25.9 -109.4,-37.5 -173.5,-32.2"
         style="fill:#d58966;fill-opacity:1;fill-rule:evenodd;stroke:none"
         id="path162"
         inkscape:connector-curvature="0" /><path
         d="m 9993.98,10932.7 c 62.32,1.2 167.62,-55 241.52,-18.1 3.5,1.9 6.9,3.9 10.1,6.1 18.5,12.6 31,30.5 38.7,50.9 22.6,59.7 4.7,141 -21.3,175.4 -38.6,51.1 -97.4,46.7 -132.4,84.5 -34.9,37.7 -49.2,111.5 -3.9,136.9 45.4,25.3 104.2,-39.4 120.5,-75.5 157.3,5 86.4,444.2 253.6,465.7 56.9,-86.7 145.3,-256.9 150.6,-390.8 3.4,-86 -41.7,-151.3 -110.8,-188 8,-30.3 21.9,-78.4 34.9,-124.2 6,-21.2 11.8,-41.8 16.8,-60 53.5,-23.2 140.6,-65.9 222.6,-123.8 126.6,39 112.1,144.2 110.1,171.8 -2.8,39.5 -44.5,45.7 -67.6,86.8 -23,41.1 32.7,165 10.2,218.6 -32.1,74.9 -130.1,71.5 -167.9,137.4 -37.7,65.9 -78.9,247.9 -98.6,273.2 -19.7,25.4 -46.2,28.2 -63.1,51.9 -16.9,23.6 -75.5,216.8 -243.3,215.1 -229.9,-0.5 -260.9,-196.6 -297.49,-242.7 -36.61,-46.2 -219.15,-88.5 -257.45,-155 -38.31,-66.4 5.01,-211.4 -4.53,-292.3 -9.52,-81 -138.23,-166.3 -133.98,-311.5 2.36,-81.3 42.4,-160.3 108.26,-190 71.32,-32.1 123.25,-12.6 164.66,17.1 40.89,29.4 71.53,68.6 100.45,77.6 l 1.56,0.5 c 5.42,1.5 11.38,2.2 17.8,2.4"
         style="fill:#403379;fill-opacity:1;fill-rule:evenodd;stroke:none"
         id="path164"
         inkscape:connector-curvature="0" /><path
         d="m 10057,10562.5 c -112.7,-224.2 -211.86,-477.7 -242.29,-508.1 84.51,-86.8 226.49,-572.4 276.09,-747 72.1,-33.8 166.7,-85.6 166.7,-130.7 0,-32.7 -114.3,42.2 -121.1,28.2 -9.6,-26.5 -11.3,-396.1 -45.1,-388.2 -33.8,7.9 -109.26,154.4 -101.38,413.5 -154.36,154.4 -509.25,721.1 -517.14,839.4 48.88,153.1 269.98,617.5 383.27,748.6 185.65,214.8 324.95,-8.8 200.95,-255.7"
         style="fill:#e5a485;fill-opacity:1;fill-rule:evenodd;stroke:none"
         id="path166"
         inkscape:connector-curvature="0" /><path
         d="M 8990.49,5556.7 C 8963.5,5517.9 8649.34,5105.3 8618.67,5073 l 120.28,-83.6 c 44.24,59.7 227.5,210.9 255.52,221.6 28.03,10.7 23.12,258.3 23.12,258.3 l -27.1,87.4"
         style="fill:#e76345;fill-opacity:1;fill-rule:evenodd;stroke:none"
         id="path168"
         inkscape:connector-curvature="0" /><path
         d="m 9299.04,5935.7 c 10.6,-58.9 168.56,-235.2 236.28,-291.8 -138.18,-198.8 -215.28,-450.1 -237.91,-658.1 -17.57,-161.5 10.54,-305.8 -13.82,-322.2 -86.25,-58 -330.75,200.3 -339.04,403.7 -8.2,201.3 31.95,472.4 45.94,489.4 77.2,97.3 202.21,225.8 308.55,379"
         style="fill:#ee7357;fill-opacity:1;fill-rule:evenodd;stroke:none"
         id="path170"
         inkscape:connector-curvature="0" /><g
         id="g172"
         transform="scale(1.16676)"><path
           d="m 15303.6,5885.61 c 550.3,0 996.4,-564.55 996.4,-1261.01 0,-696.46 -446.1,-1261.01 -996.4,-1261.01 h -560.3 c -550.2,0 -996.4,564.55 -996.4,1261.01 0,696.46 446.2,1261.01 996.4,1261.01 h 560.3"
           style="fill:#493a89;fill-opacity:1;fill-rule:evenodd;stroke:none"
           id="path174"
           inkscape:connector-curvature="0" /></g><g
         id="g176"
         transform="scale(1.16676)"><path
           d="m 15303.6,5885.61 c 550.3,0 996.4,-564.55 996.4,-1261.01 0,-696.46 -446.1,-1261.01 -996.4,-1261.01 -550.3,0 -996.4,564.55 -996.4,1261.01 0,696.46 446.1,1261.01 996.4,1261.01"
           style="fill:#3c2f75;fill-opacity:1;fill-rule:evenodd;stroke:none"
           id="path178"
           inkscape:connector-curvature="0" /></g><path
         d="m 8646.36,6867.1 c 642.04,0 1162.52,-658.7 1162.52,-1471.3 0,-812.6 -520.48,-1471.3 -1162.52,-1471.3 h -653.71 c -642.03,0 -1162.5,658.7 -1162.5,1471.3 0,812.6 520.47,1471.3 1162.5,1471.3 h 653.71"
         style="fill:#493a89;fill-opacity:1;fill-rule:evenodd;stroke:none"
         id="path180"
         inkscape:connector-curvature="0" /><path
         d="m 8646.36,6867.1 c 642.04,0 1162.52,-658.7 1162.52,-1471.3 0,-812.6 -520.48,-1471.3 -1162.52,-1471.3 -642.03,0 -1162.5,658.7 -1162.5,1471.3 0,812.6 520.47,1471.3 1162.5,1471.3"
         style="fill:#3c2f75;fill-opacity:1;fill-rule:evenodd;stroke:none"
         id="path182"
         inkscape:connector-curvature="0" /><g
         id="g184"
         transform="scale(1.45312)"><path
           d="m 16156.4,4784.46 c 63.6,1184.89 -733.1,1816.5 -876.2,1914.22 l 97.7,96.07 -42.7,84.57 c -334.1,80.52 -703,135.85 -1079.8,172.6 h -0.3 c -53.5,5.23 -107,10.04 -160.7,14.52 -0.9,0.07 -1.9,0.13 -2.8,0.2 -52.8,4.41 -105.7,8.4 -158.6,12.12 -1.8,0.13 -3.4,0.27 -5.1,0.41 -52.2,3.58 -104.4,6.95 -156.5,9.98 -2.4,0.13 -4.8,0.27 -7.3,0.41 -51.3,2.89 -102.6,5.57 -153.7,7.98 -3.2,0.14 -6.3,0.28 -9.4,0.41 -50.5,2.28 -100.7,4.34 -150.7,6.13 -3.9,0.14 -7.7,0.27 -11.4,0.41 -49.4,1.72 -98.5,3.24 -147.4,4.47 -4.5,0.14 -8.9,0.28 -13.3,0.35 -48.1,1.24 -96,2.2 -143.6,2.96 -5.1,0.07 -10.1,0.14 -15.2,0.28 -46.8,0.68 -93.2,1.16 -139.4,1.58 -5.7,0 -11.2,0.07 -16.9,0.07 -37.2,0.27 -74.3,0.41 -111,0.41 h -2615.2 c -821.11,0 -1301.73,-56.57 -1516.3,-89.19 C 8297.03,6961.01 6871.84,6049.87 6595.53,5861.24 5622.97,5792.22 4853.99,5442.97 4779.45,5373.94 4566.39,5140.86 4408.18,4849.35 4286.52,4531.9 4093.57,4481.73 3890.56,4310.65 3698.33,3361.73 h 3971.57 5654 2652.9 c 47,31.65 283,226.4 323.2,591 v 756.09 c 0,41.64 -26.8,75.64 -59.8,75.64 h -83.8"
           style="fill:#9884f1;fill-opacity:1;fill-rule:evenodd;stroke:none"
           id="path186"
           inkscape:connector-curvature="0" /></g><path
         d="m 13754.2,4885 h 224.6 c 0.1,607.1 16.5,1295.2 -288,1779.1 -284.5,452.1 -793,480.9 -1285.5,480.9 -857.8,0 -1653.6,-692 -1653.6,-1777.8 l 100.4,-482.2 h 118 118.1 2666"
         style="fill:#6843be;fill-opacity:1;fill-rule:evenodd;stroke:none"
         id="path188"
         inkscape:connector-curvature="0" /><path
         d="m 12576.5,6867.1 c 642,0 1162.5,-658.7 1162.5,-1471.3 0,-812.6 -520.5,-1471.3 -1162.5,-1471.3 h -653.8 c -642,0 -1162.5,658.7 -1162.5,1471.3 0,812.6 520.5,1471.3 1162.5,1471.3 h 653.8"
         style="fill:#3c2f75;fill-opacity:1;fill-rule:evenodd;stroke:none"
         id="path190"
         inkscape:connector-curvature="0" /><g
         id="g192"
         transform="scale(1.4237)"><path
           d="m 16086.6,3431.2 h 42.1 171.2 c 0.1,426.43 -43.9,909.74 -257.8,1249.63 -199.8,317.63 -557,337.79 -902.9,337.79 -602.6,0 -1091,-786.62 -1091,-1549.21 v -38.21 h 82.9 82.9 1872.6"
           style="fill:#6843be;fill-opacity:1;fill-rule:evenodd;stroke:none"
           id="path194"
           inkscape:connector-curvature="0" /></g><g
         id="g196"
         transform="scale(1.45312)"><path
           d="m 16156.4,4784.46 c 63.6,1184.89 -733.1,1816.5 -876.2,1914.22 l 97.7,96.07 -42.7,84.57 c -1527,368.11 -3778.9,210.52 -4202.5,146.1 C 10709.1,6961.01 9506.29,6049.87 9229.98,5861.24 8257.46,5792.22 7608.65,5436.91 7534.12,5367.96 7321.06,5134.87 7042.63,4849.35 6920.96,4531.9 6728.03,4481.73 6525.03,4310.65 6332.79,3361.73 h 1133.96 c 0.89,4.33 1.37,8.94 1.37,13.69 v 188.77 c 0,747.15 478.56,1352.81 1068.87,1352.81 338.93,0 640.9,-199.23 836.69,-510.42 209.61,-333.21 264.18,-462.18 264.18,-880.52 0,-90.49 -31.79,-164.33 39.78,-164.33 h 2451.46 1579 c 71.5,0 129.8,73.84 129.8,164.33 0,418.34 -35.6,547.31 174.1,880.52 195.8,311.19 497.8,510.42 836.6,510.42 590.4,0 1143.1,-605.66 1143.1,-1352.81 v -156.56 c 0,-16.66 9.9,-35.31 16,-41.29 6.2,-5.99 3.7,-3.31 5.5,-4.61 h 37.7 c 46.9,31.65 208.9,226.4 249.1,591 v 756.09 c 0,41.64 -26.8,75.64 -59.8,75.64 h -83.8"
           style="fill:#8b77e8;fill-opacity:1;fill-rule:evenodd;stroke:none"
           id="path198"
           inkscape:connector-curvature="0" /></g><path
         d="m 10852.1,4885 v 294.2 c 0,1085.7 695.4,1965.8 1553.2,1965.8 492.5,0 931.3,-289.5 1215.8,-741.7 294.7,-468.4 385.6,-945.2 357.7,-1518.3 h 352.8 c 9.1,96.5 13.9,194.6 13.9,294.2 0,1356.1 -868.6,2455.5 -1940.2,2455.5 -1071.4,0 -1940.1,-1170.8 -1940.1,-2455.5 0,-115.6 0,-212.6 0.1,-294.2 h 386.8"
         style="fill:#7964d8;fill-opacity:1;fill-rule:evenodd;stroke:none"
         id="path200"
         inkscape:connector-curvature="0" /><path
         d="m 12576.5,6321.5 c 403.9,0 731.3,-414.4 731.3,-925.7 0,-511.2 -327.4,-925.6 -731.3,-925.6 -404,0 -731.4,414.4 -731.4,925.6 0,511.3 327.4,925.7 731.4,925.7"
         style="fill:#5534a0;fill-opacity:1;fill-rule:evenodd;stroke:none"
         id="path202"
         inkscape:connector-curvature="0" /><path
         d="m 12576.5,6867.1 c 642,0 1162.5,-658.7 1162.5,-1471.3 0,-812.6 -520.5,-1471.3 -1162.5,-1471.3 -642.1,0 -1162.5,658.7 -1162.5,1471.3 0,812.6 520.4,1471.3 1162.5,1471.3 z m 0,-504.1 c 422,0 764.1,-433 764.1,-967.2 0,-534.1 -342.1,-967.1 -764.1,-967.1 -422.1,0 -764.2,433 -764.2,967.1 0,534.2 342.1,967.2 764.2,967.2"
         style="fill:#493a89;fill-opacity:1;fill-rule:evenodd;stroke:none"
         id="path204"
         inkscape:connector-curvature="0" /><path
         d="m 12576.5,6363 c 422,0 764.1,-433 764.1,-967.2 0,-534.1 -342.1,-967.1 -764.1,-967.1 -422.1,0 -764.2,433 -764.2,967.1 0,534.2 342.1,967.2 764.2,967.2 z m 0,-209.8 c 330.4,0 598.3,-339.1 598.3,-757.4 0,-418.2 -267.9,-757.3 -598.3,-757.3 -330.5,0 -598.4,339.1 -598.4,757.3 0,418.3 267.9,757.4 598.4,757.4"
         style="fill:#d9d3ff;fill-opacity:1;fill-rule:evenodd;stroke:none"
         id="path206"
         inkscape:connector-curvature="0" /><path
         d="m 12576.5,6234.3 c 365.8,0 662.5,-375.4 662.5,-838.5 0,-463.1 -296.7,-838.4 -662.5,-838.4 -365.9,0 -662.5,375.3 -662.5,838.4 0,463.1 296.6,838.5 662.5,838.5 z m 0,-81.1 c 330.4,0 598.3,-339.1 598.3,-757.4 0,-418.2 -267.9,-757.3 -598.3,-757.3 -330.5,0 -598.4,339.1 -598.4,757.3 0,418.3 267.9,757.4 598.4,757.4"
         style="fill:#412681;fill-opacity:1;fill-rule:evenodd;stroke:none"
         id="path208"
         inkscape:connector-curvature="0" /><path
         d="m 12709.7,5713.3 c 23.7,-16 45.4,-36 64.5,-59.5 261.4,23 358.1,178.2 362.1,258.2 57.7,-79.8 91.5,-213.7 99.1,-246 8.8,-31.7 43.6,-165.2 34,-272.7 -40.4,61.8 -190.7,115.5 -412.8,-60.2 -4.6,-33.9 -13,-66.2 -24.6,-96.1 98.2,-307.1 244.7,-375.3 306,-355.4 -42,-94.1 -132.1,-176.3 -154,-195.4 -21.1,-20.5 -110.6,-103.7 -194.3,-125.5 33.8,67.7 27.6,265.3 -173.3,478.1 -13,-2.3 -26.4,-3.5 -39.9,-3.5 -13.6,0 -27,1.2 -40,3.5 -200.9,-212.8 -207.1,-410.4 -173.3,-478.1 -83.6,21.8 -173.2,105 -194.2,125.5 -21.9,19.1 -112,101.3 -154.1,195.4 61.3,-19.9 207.8,48.3 306.1,355.4 -11.6,29.9 -20,62.2 -24.7,96.1 -222.1,175.7 -372.4,122 -412.7,60.2 -9.7,107.5 25.1,241 34,272.7 7.5,32.3 41.4,166.2 99,246 4,-80 100.8,-235.2 362.1,-258.2 19.1,23.5 40.9,43.5 64.6,59.5 63.4,321.5 -23.4,485.8 -82.2,515.4 77.7,44.7 188.8,44.1 215.4,43.2 26.5,0.9 137.6,1.5 215.4,-43.2 -58.9,-29.6 -145.6,-193.9 -82.2,-515.4"
         style="fill:#d9d3ff;fill-opacity:1;fill-rule:evenodd;stroke:none"
         id="path210"
         inkscape:connector-curvature="0" /><path
         d="m 12576.5,5493.9 c 42.8,0 77.4,-43.9 77.4,-98.1 0,-54.1 -34.6,-98 -77.4,-98 -42.8,0 -77.5,43.9 -77.5,98 0,54.2 34.7,98.1 77.5,98.1"
         style="fill:#5534a0;fill-opacity:1;fill-rule:evenodd;stroke:none"
         id="path212"
         inkscape:connector-curvature="0" /><path
         d="m 12576.5,5649.8 c 18.4,0 33.3,-18.9 33.3,-42.2 0,-23.2 -14.9,-42.1 -33.3,-42.1 -18.4,0 -33.3,18.9 -33.3,42.1 0,23.3 14.9,42.2 33.3,42.2"
         style="fill:#2e1469;fill-opacity:1;fill-rule:evenodd;stroke:none"
         id="path214"
         inkscape:connector-curvature="0" /><path
         d="m 12385.6,5474.3 c 5.7,22.1 24.4,34.3 41.9,27.1 17.5,-7.2 27.1,-31 21.4,-53.1 -5.7,-22.2 -24.4,-34.3 -41.9,-27.1 -17.5,7.2 -27.1,31 -21.4,53.1"
         style="fill:#2e1469;fill-opacity:1;fill-rule:evenodd;stroke:none"
         id="path216"
         inkscape:connector-curvature="0" /><path
         d="m 12458.5,5190.4 c -14.9,13.7 -18.2,40 -7.4,58.8 10.9,18.9 31.7,23 46.6,9.3 14.8,-13.7 18.1,-40 7.3,-58.8 -10.8,-18.9 -31.7,-23 -46.5,-9.3"
         style="fill:#2e1469;fill-opacity:1;fill-rule:evenodd;stroke:none"
         id="path218"
         inkscape:connector-curvature="0" /><path
         d="m 12694.5,5190.4 c -14.9,-13.7 -35.7,-9.6 -46.6,9.3 -10.8,18.8 -7.5,45.1 7.4,58.8 14.8,13.7 35.7,9.6 46.5,-9.3 10.8,-18.8 7.5,-45.1 -7.3,-58.8"
         style="fill:#2e1469;fill-opacity:1;fill-rule:evenodd;stroke:none"
         id="path220"
         inkscape:connector-curvature="0" /><path
         d="m 12767.3,5474.3 c 5.7,-22.1 -3.8,-45.9 -21.3,-53.1 -17.5,-7.2 -36.3,4.9 -42,27.1 -5.7,22.1 3.9,45.9 21.4,53.1 17.5,7.2 36.3,-5 41.9,-27.1"
         style="fill:#2e1469;fill-opacity:1;fill-rule:evenodd;stroke:none"
         id="path222"
         inkscape:connector-curvature="0" /><g
         id="g224"
         transform="scale(1.34723)"><path
           d="m 15318.7,6391.42 c -85,-28.2 -171.9,-47.72 -258.9,-62.87 -107.6,-18.7 -216.2,-30.95 -324.6,-40.6 -136.1,-12.17 -272.6,-20.26 -409,-27.31 -170.7,-8.83 -341.5,-15.74 -512.2,-22.79 -469.6,-19.37 -939,-39.79 -1408.4,-67.03 -682,-39.63 -1363.5,-91.59 -2044.5,-153.87 -23.9,-2.15 -45.9,14.7 -55.3,42.61 -9.4,28.06 -3.9,59.6 14.1,79.94 58,65.77 119.1,128.12 180.9,188.16 76,74.01 154,145.04 233,213.78 182.3,158.55 372,306.7 566,440.97 137.6,95.17 278.7,184.09 423,261.88 130.4,70.29 266.3,133.31 404.1,176.21 53.2,16.55 107.3,29.17 161.5,39.79 64.7,12.69 129.8,22.56 194.9,30.8 156.7,19.82 314.7,30.51 472,37.41 182.9,7.94 366.1,10.17 549.1,9.06 195.9,-1.19 391.8,-6.31 587.5,-14.48 368.2,-15.36 737.1,-40.82 1104.4,-78.16 154.3,-15.66 308.5,-33.47 462.3,-55.15 118.5,-16.7 237.5,-35.4 355.1,-60.42 65.5,-13.88 128.7,-45.42 186.2,-86.99 30.7,-22.27 64.2,-50.26 90.9,-79.95 l 9.2,-10.24 -7.3,-12.47 c -7.3,-12.47 -17.7,-24.64 -26.9,-34.88 -14.5,-16.19 -29.8,-31.55 -45.1,-46.47 -44.4,-42.98 -90.8,-83.58 -137.1,-122.92 -127,-107.85 -258.9,-209.46 -392.1,-304.63 -120,-85.8 -244.4,-169.23 -370.8,-238.56 l -1,-0.52 -1,-0.3"
           style="fill:#6843be;fill-opacity:1;fill-rule:evenodd;stroke:none"
           id="path226"
           inkscape:connector-curvature="0" /></g><g
         id="g228"
         transform="scale(1.09164)"><path
           d="m 13574.8,8253.93 c -140.4,-255.31 -261.7,-551.47 -310.9,-709.4 680.7,58.27 1361.9,107.83 2043.5,147.4 253,14.65 505.9,27.76 758.8,39.85 55.9,380.8 233.8,1492.52 233.8,1492.52 -103.2,-1.92 -206.4,-5.03 -309.4,-9.52 -192.8,-8.34 -386.4,-21.53 -578.4,-45.81 -143,-18.04 -292,-41.86 -431.6,-85.28 -166.8,-51.94 -331.5,-128.43 -489.4,-213.62 -176.3,-94.91 -348.7,-203.64 -516.8,-319.89 -135.1,-93.44 -268.6,-192.46 -399.6,-296.25"
           style="fill:#403379;fill-opacity:1;fill-rule:evenodd;stroke:none"
           id="path230"
           inkscape:connector-curvature="0" /></g><g
         id="g232"
         transform="scale(1.10279)"><path
           d="m 16300,9208.36 c -0.6,-4.72 -211.5,-1705.4 -221,-1970.73 l -1.6,-44.16 c -15.4,-407.51 -88.2,-2485.96 136.8,-2763.8 h -27 c -233.8,288.63 -152.3,2355.38 -136.8,2765.43 l 1.6,43.98 c 9.6,268.23 220.3,1964.38 220.8,1969.1 l 27.2,0.18"
           style="fill:#2e1469;fill-opacity:1;fill-rule:nonzero;stroke:none"
           id="path234"
           inkscape:connector-curvature="0" /></g><path
         d="m 14153.6,8123.8 c -0.4,-1.9 -156.1,-710.8 -70.2,-1711.5 l -37.4,78 c -86.6,1008.2 74.9,1628.7 75.4,1630.7 l 32.2,2.8"
         style="fill:#2e1469;fill-opacity:1;fill-rule:nonzero;stroke:none"
         id="path236"
         inkscape:connector-curvature="0" /><g
         id="g238"
         transform="scale(1.28656)"><path
           d="m 15601.3,7824.99 608.1,-1132.17 c 39.5,-73.69 65.6,-151.49 78.1,-232.64 12.5,-81.15 11.4,-165.63 -3.4,-252.61 l -167.8,-982.86 -22.7,6.22 167.7,982.86 c 14.2,83.09 15.3,163.61 3.4,240.87 -11.9,77.26 -36.8,151.42 -74.5,221.68 l -618.3,1151.06 29.4,-2.41"
           style="fill:#2e1469;fill-opacity:1;fill-rule:nonzero;stroke:none"
           id="path240"
           inkscape:connector-curvature="0" /></g><g
         id="g242"
         transform="scale(1.34132)"><path
           d="m 15188.9,7422.77 367.3,-832.31 c 61,39.73 121.1,81.41 180.3,123.68 132.6,94.83 264,196.07 390.5,303.43 45.7,38.84 91.5,78.8 135.3,121.23 12.7,12.45 25.5,25.19 37.7,38.54 -17.3,15.73 -35.8,30.42 -53.2,42.94 -52.6,38.1 -110.7,67.32 -170.8,80.07 -117.1,24.9 -235.8,43.47 -353.9,60.17 -154,21.69 -308.4,39.58 -462.9,55.24 -23.4,2.39 -46.9,4.7 -70.3,7.01"
           style="fill:#403379;fill-opacity:1;fill-rule:evenodd;stroke:none"
           id="path244"
           inkscape:connector-curvature="0" /></g><g
         id="g246"><g
           id="g248"
           clip-path="url(#clipPath252)"><g
             id="g254"
             transform="scale(1.16234)"><path
               d="M 14423.5,4202.72 H 16300 14423.5"
               style="fill:#6350b4;fill-opacity:1;fill-rule:nonzero;stroke:none"
               id="path256"
               inkscape:connector-curvature="0" /></g></g></g><g
         id="g258"
         transform="scale(1.23363)"><path
           d="m 16212.6,3978.58 v 0 c 51.6,31.21 87.4,97.92 87.4,174.85 v 0 c 0,-76.93 -35.8,-143.64 -87.4,-174.85 m 87.4,180.03 c 0,0.17 0,0.25 0,0.41 0,-0.16 0,-0.32 0,-0.41 m 0,5.52 c 0,0.16 0,0.32 0,0.48 0,-0.16 0,-0.32 0,-0.48 m 0,1.37 c 0,0.17 0,0.41 0,0.57 0,-0.16 0,-0.4 0,-0.57 m 0,1.14 c 0,0.32 0,0.57 0,0.81 0,-0.24 0,-0.49 0,-0.81 m 0,1.46 c 0,0.32 0,0.65 0,0.97 0,-0.32 0,-0.65 0,-0.97 m 0,1.13 c 0,0.41 0,0.74 0,1.14 0,-0.4 0,-0.73 0,-1.14 m 0,1.71 c 0,1.62 0,3.24 0,4.86 0,-1.62 0,-3.24 0,-4.86 m 0,5.67 c 0,0.16 0,0.41 0,0.57 0,-0.16 0,-0.41 0,-0.57 m -0.1,1.14 c 0,1.37 0,2.67 0,4.05 0,-1.3 0,-2.68 0,-4.05 m 0,4.21 c 0,2.76 0,5.51 0,8.27 0,-2.76 0,-5.51 0,-8.27 m 0,8.43 c 0,2.68 0,5.27 0,7.95 0,-2.68 0,-5.27 0,-7.95 m -0.1,8.59 c 0,0.33 0,0.65 0,0.98 0,-0.33 0,-0.65 0,-0.98 m 0,1.22 c 0,0.32 0,0.81 0,1.14 0,-0.41 0,-0.82 0,-1.14 m 0,1.22 c 0,0.48 0,0.89 0,1.37 0,-0.48 0,-0.89 0,-1.37 m 0,1.37 c 0,0.41 0,0.73 0,1.06 0,-0.33 0,-0.65 0,-1.06 m 0,1.46 c 0,0.41 0,0.73 0,1.06 0,-0.33 0,-0.65 0,-1.06 m 0,1.46 c 0,0.25 0,0.49 0,0.73 0,-0.24 0,-0.48 0,-0.73 m 0,1.3 c 0,0.32 0,0.65 0,0.97 0,-0.32 0,-0.65 0,-0.97 m 0,1.54 v 0 0 m 0,3.16 c -0.5,92.49 -2.2,172.42 -2.5,244.4 v 0 c 0.3,-71.98 2,-151.91 2.5,-244.4"
           style="fill:#7358ce;fill-opacity:1;fill-rule:nonzero;stroke:none"
           id="path260"
           inkscape:connector-curvature="0" /></g><g
         id="g262"
         transform="scale(1.23363)"><path
           d="m 16147,3959.85 h -788.9 -863.6 c -54.6,67.44 -89.6,253.56 -111.4,496.26 h 1914.2 c 0.3,-71.98 2,-151.91 2.5,-244.4 0,-1.05 0,-2.11 0,-3.16 v 0 c 0,-0.16 0,-0.32 0,-0.57 0,-0.32 0,-0.65 0,-0.97 0,-0.24 0,-0.41 0,-0.57 0,-0.24 0,-0.48 0,-0.73 0,-0.08 0,-0.24 0,-0.4 0,-0.33 0,-0.65 0,-1.06 0,-0.08 0,-0.24 0,-0.4 0,-0.33 0,-0.65 0,-1.06 v 0 c 0,-0.48 0,-0.89 0,-1.37 v -0.08 c 0,-0.33 0,-0.82 0,-1.14 0,-0.08 0,-0.16 0,-0.24 0,-0.33 0,-0.65 0,-0.98 0,-0.24 0.1,-0.48 0.1,-0.64 0,-2.68 0,-5.27 0,-7.95 0,-0.08 0,-0.08 0,-0.16 0,-2.76 0,-5.51 0,-8.27 0,0 0,-0.08 0,-0.16 0,-1.38 0,-2.68 0,-4.05 0,-0.25 0,-0.41 0.1,-0.57 0,-0.16 0,-0.41 0,-0.57 0,-0.24 0,-0.49 0,-0.81 0,-1.62 0,-3.24 0,-4.86 0,-0.25 0,-0.41 0,-0.57 0,-0.4 0,-0.73 0,-1.14 0,0 0,-0.08 0,-0.16 0,-0.32 0,-0.65 0,-0.97 0,-0.16 0,-0.4 0,-0.65 0,-0.24 0,-0.49 0,-0.81 0,-0.16 0,-0.4 0,-0.57 0,-0.16 0,-0.4 0,-0.57 0,-0.32 0,-0.64 0,-0.89 0,-0.16 0,-0.32 0,-0.48 0,-1.7 0,-3.41 0,-5.11 0,-0.16 0,-0.24 0,-0.41 0,-1.7 0,-3.48 0,-5.18 0,-76.93 -35.8,-143.64 -87.4,-174.85 -19.8,-12 -42.1,-18.73 -65.6,-18.73 v 0 m -1676.6,0 h -183.2 -697.2 -1972.6 c 7.4,78.23 11.3,157.75 11.3,238.49 0,87.3 -4.5,173.39 -13.2,257.77 H 14356 c 22,-240.99 57.9,-426.62 114.4,-496.26"
           style="fill:#806bde;fill-opacity:1;fill-rule:nonzero;stroke:none"
           id="path264"
           inkscape:connector-curvature="0" /></g><path
         d="m 14331.6,4885 h -137.9 c -103.9,0 -188.7,107.3 -188.7,238.8 0,145.2 3,266.4 3.3,373.4 h 321 c 10.7,-104.1 16.2,-210.3 16.2,-318 0,-99.6 -4.8,-197.7 -13.9,-294.2 v 0"
         style="fill:#7964d8;fill-opacity:1;fill-rule:nonzero;stroke:none"
         id="path266"
         inkscape:connector-curvature="0" /><g
         id="g268"
         transform="scale(1.09699)"><path
           d="m 16300,4453.1 h -27.2 v 0 c -63.4,78.31 -103.8,287.06 -128.6,558.08 h 30.5 c 24.5,-272.93 63.9,-482.23 125.3,-558.08 v 0"
           style="fill:#5d47af;fill-opacity:1;fill-rule:nonzero;stroke:none"
           id="path270"
           inkscape:connector-curvature="0" /></g><g
         id="g272"
         transform="scale(1.44085)"><path
           d="m 16295.9,4869.62 c 4.1,113.4 0.4,221.74 -9.8,324.87 -60.5,235.35 -177.9,454.18 -531.1,595.9 0,0 -106.6,-204.67 -99,-204.67 577.1,-196.62 419.5,-638.86 639.9,-716.1"
           style="fill:#d05050;fill-opacity:1;fill-rule:evenodd;stroke:none"
           id="path274"
           inkscape:connector-curvature="0" /></g><g
         id="g276"
         transform="scale(1.44039)"><path
           d="m 16300,5079.05 c -1.9,39.71 -4.8,78.8 -8.6,117.12 -60.5,235.43 -178,454.33 -531.3,596.1 0,0 -9.8,-18.96 -23.3,-45.27 494.5,-173.36 438.6,-529.72 563.2,-667.95"
           style="fill:#ea8989;fill-opacity:1;fill-rule:evenodd;stroke:none"
           id="path278"
           inkscape:connector-curvature="0" /></g><path
         d="m 12289.1,10031.9 c -575.2,-219.8 -2168.5,-1221.5 -2640.36,-1522.7 356.06,-42.4 3495.56,-115.6 3750.06,-0.9 254.5,114.6 1811.7,1366.1 2472.1,1606.9 0,0 -2920.3,115.4 -3581.8,-83.3"
         style="fill:#403379;fill-opacity:1;fill-rule:evenodd;stroke:none"
         id="path280"
         inkscape:connector-curvature="0" /><path
         d="m 14746.4,8748.3 c 171.1,102.1 395.6,192 469.4,91.2 120.6,-164.6 122.1,-515.3 -28,-545.9 -66.6,-13.6 -212.7,-42.5 -352.7,-34.7 -218.5,12.3 -337.3,43.5 -349.8,133.1 -10.9,78.5 58.1,235.3 261.1,356.3"
         style="fill:#9884f1;fill-opacity:1;fill-rule:evenodd;stroke:none"
         id="path282"
         inkscape:connector-curvature="0" /><path
         d="M 9342.97,5483.8 H 5519 c -38.59,-110.3 -68.25,-249.7 -82.82,-327.4 h 3824.64 c 27.27,118.8 54.66,227.7 82.15,327.4"
         style="fill:#6843be;fill-opacity:1;fill-rule:evenodd;stroke:none"
         id="path284"
         inkscape:connector-curvature="0" /><g
         id="g286"
         transform="scale(1.40787)"><path
           d="m 15474.2,4877.65 c 456.1,0 825.8,-467.87 825.8,-1045.05 0,-577.19 -369.7,-1045.06 -825.8,-1045.06 h -464.3 c -456,0 -825.7,467.87 -825.7,1045.06 0,577.18 369.7,1045.05 825.7,1045.05 h 464.3"
           style="fill:#3c2f75;fill-opacity:1;fill-rule:evenodd;stroke:none"
           id="path288"
           inkscape:connector-curvature="0" /></g><g
         id="g290"
         transform="scale(1.44507)"><path
           d="m 13882.6,3380.45 v 203.59 c 0,751.31 481.2,1360.34 1074.8,1360.34 340.9,0 644.4,-200.33 841.3,-513.26 204,-324.13 266.9,-654.08 247.6,-1050.67 h 244.1 c 6.3,66.78 9.6,134.67 9.6,203.59 0,938.43 -601.1,1699.15 -1342.6,1699.15 -741.4,0 -1342.5,-810.13 -1342.5,-1699.15 0,-80 0,-147.12 0,-203.59 h 267.7"
           style="fill:#7964d8;fill-opacity:1;fill-rule:evenodd;stroke:none"
           id="path292"
           inkscape:connector-curvature="0" /></g><g
         id="g294"
         transform="scale(1.38142)"><path
           d="m 15770.5,4576.1 c 292.5,0 529.5,-299.98 529.5,-670.11 0,-370.06 -237,-670.04 -529.5,-670.04 -292.3,0 -529.3,299.98 -529.3,670.04 0,370.13 237,670.11 529.3,670.11"
           style="fill:#5534a0;fill-opacity:1;fill-rule:evenodd;stroke:none"
           id="path296"
           inkscape:connector-curvature="0" /></g><g
         id="g298"
         transform="scale(1.40787)"><path
           d="m 15474.2,4877.65 c 456.1,0 825.8,-467.87 825.8,-1045.05 0,-577.19 -369.7,-1045.06 -825.8,-1045.06 -456,0 -825.7,467.87 -825.7,1045.06 0,577.18 369.7,1045.05 825.7,1045.05 z m 0,-358.06 c 299.8,0 542.8,-307.56 542.8,-686.99 0,-379.37 -243,-686.93 -542.8,-686.93 -299.7,0 -542.7,307.56 -542.7,686.93 0,379.43 243,686.99 542.7,686.99"
           style="fill:#493a89;fill-opacity:1;fill-rule:evenodd;stroke:none"
           id="path300"
           inkscape:connector-curvature="0" /></g><g
         id="g302"
         transform="scale(1.38343)"><path
           d="m 15747.6,4599.44 c 305.1,0 552.4,-312.99 552.4,-699.13 0,-386.07 -247.3,-699.06 -552.4,-699.06 -305,0 -552.3,312.99 -552.3,699.06 0,386.14 247.3,699.13 552.3,699.13 z m 0,-151.65 c 238.9,0 432.6,-245.12 432.6,-547.48 0,-302.29 -193.7,-547.41 -432.6,-547.41 -238.8,0 -432.5,245.12 -432.5,547.41 0,302.36 193.7,547.48 432.5,547.48"
           style="fill:#d9d3ff;fill-opacity:1;fill-rule:evenodd;stroke:none"
           id="path304"
           inkscape:connector-curvature="0" /></g><g
         id="g306"
         transform="scale(1.37719)"><path
           d="m 15819,4526.83 c 265.6,0 481,-272.59 481,-608.85 0,-336.27 -215.4,-608.78 -481,-608.78 -265.7,0 -481,272.51 -481,608.78 0,336.26 215.3,608.85 481,608.85 z m -0.1,-58.89 c 240,0 434.6,-246.23 434.6,-549.96 0,-303.66 -194.6,-549.89 -434.6,-549.89 -239.9,0 -434.4,246.23 -434.4,549.89 0,303.73 194.5,549.96 434.4,549.96"
           style="fill:#412681;fill-opacity:1;fill-rule:evenodd;stroke:none"
           id="path308"
           inkscape:connector-curvature="0" /></g><g
         id="g310"
         transform="scale(1.37965)"><path
           d="m 15887.3,4141.12 c 17.2,-11.59 33,-26.09 46.8,-43.12 189.5,16.67 259.6,129.16 262.5,187.14 41.8,-57.84 66.3,-154.89 71.7,-178.3 6.5,-22.98 31.7,-119.74 24.7,-197.66 -29.2,44.79 -138.2,83.72 -299.2,-43.63 -3.3,-24.58 -9.4,-47.99 -17.8,-69.66 71.2,-222.59 177.4,-272.02 221.8,-257.6 -30.4,-68.21 -95.8,-127.79 -111.6,-141.63 -15.3,-14.86 -80.2,-75.17 -140.9,-90.97 24.5,49.07 20.1,192.3 -125.6,346.54 -9.4,-1.67 -19.1,-2.54 -28.9,-2.54 -9.8,0 -19.6,0.87 -29,2.54 -145.6,-154.24 -150.1,-297.47 -125.6,-346.54 -60.7,15.8 -125.5,76.11 -140.8,90.97 -15.9,13.84 -81.1,73.42 -111.6,141.63 44.4,-14.42 150.6,35.01 221.8,257.6 -8.4,21.67 -14.5,45.08 -17.9,69.66 -161,127.35 -269.9,88.42 -299.2,43.63 -6.9,77.92 18.3,174.68 24.7,197.66 5.5,23.41 30,120.46 71.8,178.3 2.9,-57.98 73,-170.47 262.4,-187.14 13.9,17.03 29.6,31.53 46.9,43.12 45.8,233.03 -17,352.12 -59.7,373.57 56.4,32.4 136.9,31.97 156.2,31.32 19.2,0.65 99.7,1.08 156.1,-31.32 -42.7,-21.45 -105.5,-140.54 -59.6,-373.57"
           style="fill:#d9d3ff;fill-opacity:1;fill-rule:evenodd;stroke:none"
           id="path312"
           inkscape:connector-curvature="0" /></g><g
         id="g314"
         transform="scale(1.3413)"><path
           d="m 16242.2,4095.95 c 31.9,0 57.8,-32.73 57.8,-73.14 0,-40.33 -25.9,-73.06 -57.8,-73.06 -31.8,0 -57.7,32.73 -57.7,73.06 0,40.41 25.9,73.14 57.7,73.14"
           style="fill:#5534a0;fill-opacity:1;fill-rule:evenodd;stroke:none"
           id="path316"
           inkscape:connector-curvature="0" /></g><g
         id="g318"
         transform="scale(1.33859)"><path
           d="m 16275.1,4220.71 c 13.8,0 24.9,-14.12 24.9,-31.52 0,-17.34 -11.1,-31.45 -24.9,-31.45 -13.6,0 -24.8,14.11 -24.8,31.45 0,17.4 11.2,31.52 24.8,31.52"
           style="fill:#2e1469;fill-opacity:1;fill-rule:evenodd;stroke:none"
           id="path320"
           inkscape:connector-curvature="0" /></g><g
         id="g322"
         transform="scale(1.32907)"><path
           d="m 16248.1,4118.88 c 4.2,16.63 18.3,25.81 31.5,20.4 13.2,-5.42 20.4,-23.33 16.1,-39.96 -4.3,-16.7 -18.4,-25.81 -31.5,-20.39 -13.2,5.42 -20.4,23.33 -16.1,39.95"
           style="fill:#2e1469;fill-opacity:1;fill-rule:evenodd;stroke:none"
           id="path324"
           inkscape:connector-curvature="0" /></g><g
         id="g326"
         transform="scale(1.33283)"><path
           d="m 16257,3894.28 c -11.2,10.28 -13.6,30.01 -5.5,44.11 8.1,14.18 23.7,17.26 34.8,6.98 11.2,-10.28 13.7,-30.01 5.6,-44.12 -8.2,-14.18 -23.8,-17.25 -34.9,-6.97"
           style="fill:#2e1469;fill-opacity:1;fill-rule:evenodd;stroke:none"
           id="path328"
           inkscape:connector-curvature="0" /></g><g
         id="g330"
         transform="scale(1.3449)"><path
           d="m 16286.5,3859.32 c -11,-10.19 -26.6,-7.14 -34.6,6.91 -8,13.98 -5.6,33.53 5.5,43.72 11,10.19 26.5,7.14 34.6,-6.91 8,-13.98 5.5,-33.54 -5.5,-43.72"
           style="fill:#2e1469;fill-opacity:1;fill-rule:evenodd;stroke:none"
           id="path332"
           inkscape:connector-curvature="0" /></g><g
         id="g334"
         transform="scale(1.34861)"><path
           d="m 16295.8,4059.22 c 4.2,-16.38 -2.9,-34.03 -15.9,-39.37 -12.9,-5.34 -26.8,3.63 -31.1,20.1 -4.2,16.38 2.9,34.03 15.9,39.37 13,5.34 26.8,-3.71 31.1,-20.1"
           style="fill:#2e1469;fill-opacity:1;fill-rule:evenodd;stroke:none"
           id="path336"
           inkscape:connector-curvature="0" /></g><path
         d="m 6573.59,6619.8 h 3067.93 l 180.47,331.8 78.6,116.4 H 6780.24 l -206.65,-448.2"
         style="fill:#403379;fill-opacity:1;fill-rule:evenodd;stroke:none"
         id="path338"
         inkscape:connector-curvature="0" /><path
         d="m 6573.59,6619.8 v -1.1 h 3068.57 l 180.75,332.3 79.71,118.1 H 6779.55 L 6571.9,6618.7 h 1.69 v 1.1 l 0.98,-0.4 206.36,447.5 h 3117.62 l -77.48,-114.8 -180.19,-331.2 H 6573.59 v -1.1 l 0.98,-0.4 -0.98,0.4"
         style="fill:#000000;fill-opacity:1;fill-rule:nonzero;stroke:none"
         id="path340"
         inkscape:connector-curvature="0" /><path
         d="M 6687.66,7483 C 6481.42,7191.4 6369.1,6941.4 6242.65,6619.8 h 515.9 c 70.23,431.9 6.42,658.8 -70.89,863.2"
         style="fill:#ececec;fill-opacity:1;fill-rule:evenodd;stroke:none"
         id="path342"
         inkscape:connector-curvature="0" /><path
         d="m 6324.24,6820.6 c -27.28,-64.3 -54.09,-130.9 -81.59,-200.8 h 65.26 c -1.37,54.7 5.57,128.3 16.33,200.8"
         style="fill:#e0b945;fill-opacity:1;fill-rule:evenodd;stroke:none"
         id="path344"
         inkscape:connector-curvature="0" /><path
         d="m 9453.39,6620.1 c 178.03,2.5 597.81,21.1 677.11,78.3 85.8,61.8 293.2,391.1 766,529.9 -42,45 -174.1,151.7 -322.8,200 -454.9,-152.5 -889.09,-400.3 -1120.31,-808.2"
         style="fill:#ececec;fill-opacity:1;fill-rule:evenodd;stroke:none"
         id="path346"
         inkscape:connector-curvature="0" /><path
         d="m 9453.39,6620.1 c 178.02,2.5 628.01,22.3 705.71,78.3 77.6,55.9 218.7,319 585,475.2 -14.8,22.6 -57,24.7 -141.4,-6.4 -282,-104 -470.7,-79.2 -627.21,-17.1 -213.95,-136.9 -397.5,-310.2 -522.1,-530"
         style="fill:#ececec;fill-opacity:1;fill-rule:evenodd;stroke:none"
         id="path348"
         inkscape:connector-curvature="0" /><path
         d="m 9918.57,6648 c 99.23,11.8 181.13,28.2 211.93,50.4 85.8,61.8 293.2,391.1 766,529.9 -17.5,18.8 -50.8,48.4 -94.5,79.9 C 10567.3,7217 10128.3,6889 9918.57,6648"
         style="fill:#e0b945;fill-opacity:1;fill-rule:evenodd;stroke:none"
         id="path350"
         inkscape:connector-curvature="0" /><g
         id="g352"
         transform="scale(1.24947)"><path
           d="m 16300,7212.73 c 0,0 -227.9,519.81 -383.1,789.53 -241.3,18.48 -482.9,32.57 -724.2,42.65 -227.1,9.45 -455,15.69 -682.9,16.25 -9.5,-155.58 -57.9,-954.64 -72.5,-1287.82 151.9,6.64 303.8,12.96 455.8,19.21 183.9,7.6 367.9,15.12 551.8,24.57 146.5,7.6 293.2,16.32 439.5,29.37 115.6,10.33 231.5,23.29 346.4,43.3 23.1,4 46.2,8.32 69.2,12.96 v 309.98"
           style="fill:#403379;fill-opacity:1;fill-rule:evenodd;stroke:none"
           id="path354"
           inkscape:connector-curvature="0" /></g><g
         id="g356"
         transform="scale(1.18379)"><path
           d="m 16180.1,7579.55 c 39.8,-8.54 119.9,-114.21 74.9,-386.9 -120.7,-5.83 -241.5,-11.06 -362.2,-16.05 41.6,201.64 128.9,436.65 287.3,402.95"
           style="fill:#ffffff;fill-opacity:1;fill-rule:evenodd;stroke:none"
           id="path358"
           inkscape:connector-curvature="0" /></g><g
         id="g360"
         transform="scale(1.17232)"><path
           d="m 16299,7744.48 c -226.8,-68.84 -321.5,-255.48 -363.7,-502.34 91.7,3.75 183.4,7.59 275.1,11.6 1,37.28 1.6,61.67 1.6,61.67 l 88,414.99 -1,14.08"
           style="fill:#8b77e8;fill-opacity:1;fill-rule:evenodd;stroke:none"
           id="path362"
           inkscape:connector-curvature="0" /></g><g
         id="g364"
         transform="scale(1.20547)"><path
           d="m 16300,7081.7 c -0.4,13.44 -0.9,25.64 -1.6,36.42 l -47.7,225.64 -144.6,189.22 -111.5,46.54 c -281.2,-95.4 -427.5,-246.21 -439,-482.72 -1,-17.5 -1.4,-34.59 -1.5,-51.51 171.3,7.13 342.6,14.43 513.9,23.22 77.3,4.07 154.7,8.3 232,13.19"
           style="fill:#8b77e8;fill-opacity:1;fill-rule:evenodd;stroke:none"
           id="path366"
           inkscape:connector-curvature="0" /></g><g
         id="g368"
         transform="scale(1.18467)"><path
           d="m 16130.4,7644.46 c 0,0 109.2,10.89 167.2,36.05 2.4,63.56 -6,120.7 -25.7,180.38 -25.2,-33.59 -88.8,-119.61 -147.1,-131.09 l 4.2,-66.18 1.4,-19.16"
           style="fill:#da927d;fill-opacity:1;fill-rule:evenodd;stroke:none"
           id="path370"
           inkscape:connector-curvature="0" /></g><g
         id="g372"
         transform="scale(1.18496)"><path
           d="m 16121,7727.96 c 58.2,11.47 104,60.76 129.1,94.35 49.9,110.81 36.6,313.51 -101.3,355.79 -48,14.77 -132.1,14.6 -191.9,-35.02 -11.3,-11.23 -60,-75.45 -31.6,-209.29 28.4,-133.76 93.2,-219.92 187.9,-207.1 2.6,0.34 5.2,0.76 7.8,1.27"
           style="fill:#e29a85;fill-opacity:1;fill-rule:evenodd;stroke:none"
           id="path374"
           inkscape:connector-curvature="0" /></g><g
         id="g376"
         transform="scale(1.2131)"><path
           d="m 15871.6,7486.74 c -44.4,-121.92 -96.3,-272.03 -117,-472.92 70.8,3.22 141.6,6.6 212.3,10.22 111,5.78 222.1,12.04 333.1,20.04 -48.3,209.71 -106.4,372.84 -174.8,430.71 -91.5,63.39 -176.1,68.17 -253.6,11.95"
           style="fill:#8b77e8;fill-opacity:1;fill-rule:evenodd;stroke:none"
           id="path378"
           inkscape:connector-curvature="0" /></g><g
         id="g380"
         transform="scale(1.20759)"><path
           d="m 15986.8,7599.11 c 26.7,-34.04 56.1,-69.72 54.8,-104.34 -0.1,-4.22 -0.4,-8.36 -0.7,-12.51 24.5,-43.47 35.4,-98.87 36.8,-155.1 h 0.1 l 144.4,3.73 v -0.17 c 27.1,23.27 52,49.77 77.8,76.6 -127.7,157.26 -140.4,455.62 -271.4,630.52 -105.6,140.85 -342.7,133.49 -431.7,-42.16 -111.8,-221.18 -70.1,-632.58 164.8,-500.41 22.6,9.1 40.8,17.88 60.6,22.77 l -3.4,65.09 c -2.6,-0.5 -5.2,-0.91 -7.7,-1.24 -92.9,-12.59 -156.5,71.96 -184.4,203.21 -27.8,131.34 20,194.35 31,205.37 179.8,108.81 263.1,-115.27 273.7,-187.48 7.2,-13.17 11.7,-56.89 13.7,-114.94 7.2,9.19 13.2,17.39 17.9,23.68 12.5,-37.84 20.4,-74.61 23.7,-112.62"
           style="fill:#fbc43a;fill-opacity:1;fill-rule:evenodd;stroke:none"
           id="path382"
           inkscape:connector-curvature="0" /></g><g
         id="g384"
         transform="scale(1.20371)"><path
           d="m 15782.5,8044.37 c 25.6,7.14 108.8,-32.07 119.7,-81.75 9.2,-42.03 -30,-95.7 -10.4,-156.85 33.5,-104.92 120.7,-122.2 126.2,-215.17 3.2,-52.33 -55.8,-102.93 -55.3,-156.59 0.5,-68.54 31,-60.24 35,-126.36 2.8,-46.52 -54.8,-129.52 -69.9,-236.77 54.6,2.57 109.1,5.23 163.7,7.97 67.9,3.58 135.8,7.23 203.8,11.47 3,28.24 4.7,52.09 3.1,63.06 -4.3,30.48 -47.4,399.92 -47.4,399.92 l -65.6,99.95 -270.5,422.77 -117.4,16.28 -15,-47.93"
           style="fill:#fbc43a;fill-opacity:1;fill-rule:evenodd;stroke:none"
           id="path386"
           inkscape:connector-curvature="0" /></g><g
         id="g388"
         transform="scale(1.15572)"><path
           d="m 16080.1,7342.71 -11,89.99 h 230.9 l -9.9,-81.34 c -61.9,-2.59 -123.8,-5.1 -185.7,-7.7 l -24.3,-0.95"
           style="fill:#e6f2ff;fill-opacity:1;fill-rule:evenodd;stroke:none"
           id="path390"
           inkscape:connector-curvature="0" /></g><g
         id="g392"
         transform="scale(1.22376)"><path
           d="m 15822.5,7923.77 c 58.2,-80.08 98.3,-210.82 147.5,-269.5 26.6,-31.54 110.1,-32.11 141.6,-112.76 31.4,-80.66 -5.3,-123.88 5.3,-180.59 10.6,-56.71 94.6,-81.8 111.4,-164.34 9.3,-45.59 -5,-70.76 1.1,-110.88 4,-26.31 44.4,-48.29 70.6,-91.69 -47.2,-4.08 -94.5,-7.84 -141.9,-11.27 -47.9,207.88 -105.5,369.6 -173.4,426.96 -45.1,31.38 -88.7,48.21 -130.5,50.42 -13.8,28.27 -27,45.59 -27,73.95 0,28.27 -105.2,303.49 -105.2,303.49 l 100.5,86.21"
           style="fill:#fbc43a;fill-opacity:1;fill-rule:evenodd;stroke:none"
           id="path394"
           inkscape:connector-curvature="0" /></g><g
         id="g396"
         transform="scale(1.2133)"><path
           d="m 16122.5,7432.21 c 41.9,2.8 154.5,-84.07 177.5,-389.03 -111.8,-8.07 -223.8,-14.5 -335.7,-20.27 l -6.8,-0.33 c -8.4,190.06 19,399.9 165,409.63"
           style="fill:#f6bba9;fill-opacity:1;fill-rule:evenodd;stroke:none"
           id="path398"
           inkscape:connector-curvature="0" /></g><g
         id="g400"
         transform="scale(1.2133)"><path
           d="m 16122.5,7432.21 c 41.9,2.8 154.5,-84.15 177.5,-389.03 -111.8,-8.07 -223.9,-14.5 -335.7,-20.27 l -6.8,-0.33 c -8.4,190.06 19,399.9 165,409.63"
           style="fill:#ffffff;fill-opacity:1;fill-rule:evenodd;stroke:none"
           id="path402"
           inkscape:connector-curvature="0" /></g><g
         id="g404"
         transform="scale(1.2133)"><path
           d="m 16300,7043.18 c -23,304.96 -135.6,391.83 -177.5,389.03 -146,-9.73 -173.4,-219.57 -165,-409.63 l 6.8,0.33 c 111.9,5.77 223.9,12.2 335.7,20.27"
           style="fill:#8b77e8;fill-opacity:1;fill-rule:evenodd;stroke:none"
           id="path406"
           inkscape:connector-curvature="0" /></g><g
         id="g408"
         transform="scale(1.67616)"><path
           d="m 16296.7,9453.3 c 3.3,-187.59 -184.7,-163.1 -209.6,-201.29 -24.9,-38.18 14.9,-197.54 -142.8,-240.71 -157.7,-43.16 -208.3,61.01 -262.3,74.7 -54,13.7 -300.5,-92.96 -439.9,24.91 -139.5,117.87 -122.4,205.85 -147.8,250.67 -25.3,44.83 -234.4,119.53 -131.5,393.45 102.9,273.87 355.3,36.53 405.1,43.16 49.7,6.65 102.9,192.58 330.3,151.08 227.4,-41.51 185.6,-241.55 219.1,-257.32 33.6,-15.77 56.1,33.62 103,21.58 46.8,-12.04 46.4,-68.06 69.7,-86.32 23.2,-18.27 193.4,9.95 206.7,-173.91"
           style="fill:#f7f6ff;fill-opacity:1;fill-rule:evenodd;stroke:none"
           id="path410"
           inkscape:connector-curvature="0" /></g><g
         id="g412"
         transform="scale(1.14633)"><path
           d="m 13574.2,15670.3 c 0,-90.2 -258.5,-170.7 -560.8,-190.2 -302.4,-19.5 -497.4,39 -536.4,36.6 -39,-2.5 -587.6,-209.7 -1036.3,-85.4 -222.5,59.8 -285.1,164.4 -268,241.2 40.9,183.9 399.1,76.8 490,120.9 31,16.5 87.1,223.7 265.1,296.9 178,73.1 248.7,-7.4 286.4,-7.4 37.9,0 151.3,217.1 361,186.6 209.7,-30.5 234.3,-360.6 261.1,-366.7 26.9,-6.1 46.1,43.4 100.9,34.9 54.8,-8.6 70.7,-146.1 102.5,-153.4 31.6,-7.4 97.5,32.6 152.3,35 54.9,2.5 132.9,-97.5 169.5,-95.1 36.5,2.5 186.5,89 212.7,-53.9"
           style="fill:#f7f6ff;fill-opacity:1;fill-rule:evenodd;stroke:none"
           id="path414"
           inkscape:connector-curvature="0" /></g><g
         id="g416"
         transform="scale(1.22904)"><path
           d="m 6485.14,15755.3 c -21.17,142.4 -136.48,202.4 -285.86,145.9 -29.4,-7 -67.05,130.6 -195.26,168.2 -128.21,37.7 -226.44,-45.9 -269.38,-41.1 -79.33,8.6 -205.5,250.5 -526.68,265.8 -123.27,5.9 -284.99,-22.2 -402.17,-128.6 -59.61,-54.1 -83.49,-181.6 -133.32,-229 -41.2,-39.2 -192.91,-24.7 -228.2,-162.3 -130.82,-510.3 2103.01,-436.6 2040.87,-18.9"
           style="fill:#f7f6ff;fill-opacity:1;fill-rule:evenodd;stroke:none"
           id="path418"
           inkscape:connector-curvature="0" /></g><g
         id="g420"
         transform="scale(1.49534)"><path
           d="m 16039.7,13268.6 c -100.8,-7.7 -164.3,29.9 -242.9,30.3 -59.8,0.4 -387.2,-128.1 -613.7,-112.4 -226.3,15.6 -269.1,93.6 -293.3,96.8 -33.1,1.3 -94.6,-54.5 -287.5,-38 -103.8,8.8 -192.1,57.3 -189.4,110.6 11.3,146.7 284.7,84 360.2,89.7 10.7,70.5 54.8,132.4 307.5,121 -27,28.5 -14.2,205.1 274.9,210.8 327.4,-18.6 449,-249.3 486.9,-279.1 21.2,-16.7 161.5,18.8 268.4,-4 189.2,-40.4 143.1,-209.2 -71.1,-225.7"
           style="fill:#f7f6ff;fill-opacity:1;fill-rule:evenodd;stroke:none"
           id="path422"
           inkscape:connector-curvature="0" /></g><g
         id="g424"
         transform="scale(1.05105)"><path
           d="m 14486.6,15366.3 c 989.6,0 1791.7,-802.2 1791.7,-1791.8 v -2.8 c 21.7,-1222 -1477.5,-2588.2 -1791.7,-2875.8 -314.6,287.9 -1815.8,1655.9 -1791.8,2878.6 0,989.6 802.2,1791.8 1791.8,1791.8 z m 0,-997.4 c 438.7,0 794.3,-355.7 794.3,-794.4 0,-438.7 -355.6,-794.3 -794.3,-794.3 -438.7,0 -794.4,355.6 -794.4,794.3 0,438.7 355.7,794.4 794.4,794.4"
           style="fill:#fd9c8b;fill-opacity:1;fill-rule:evenodd;stroke:none"
           id="path426"
           inkscape:connector-curvature="0" /></g></g></g></svg>